<?xml version="1.0" standalone="no"?>
<!DOCTYPE svg PUBLIC "-//W3C//DTD SVG 20010904//EN"
 "http://www.w3.org/TR/2001/REC-SVG-20010904/DTD/svg10.dtd">
<svg version="1.0" xmlns="http://www.w3.org/2000/svg"
 width="512.000000pt" height="512.000000pt" viewBox="0 0 512.000000 512.000000"
 preserveAspectRatio="xMidYMid meet">
<metadata>
Created by potrace 1.14, written by Peter Selinger 2001-2017
</metadata>
<g transform="translate(0.000000,512.000000) scale(0.100000,-0.100000)"
fill="#000000" stroke="none">
<path d="M0 3250 l0 -1870 39 28 c21 15 53 39 72 53 69 55 156 67 309 44 69
-11 72 -25 4 -24 -57 1 -123 -7 -154 -18 -8 -3 -28 -7 -43 -8 -16 -2 -34 -8
-40 -14 -6 -6 -20 -11 -30 -11 -14 0 -18 -5 -15 -18 6 -20 -20 -42 -47 -42 -8
0 -15 -4 -15 -10 0 -5 -8 -10 -17 -11 -25 -1 45 -18 85 -20 31 -2 41 -12 23
-24 -5 -3 -12 -1 -15 3 -7 11 -56 10 -74 -1 -7 -5 -12 -3 -12 4 0 7 -8 9 -22
4 -13 -3 -29 -7 -35 -7 -10 -1 -13 -139 -13 -655 l0 -653 2183 1 c1395 1 2169
4 2147 11 -49 13 -120 28 -128 27 -4 -1 -16 -1 -27 1 l-20 1 20 9 c11 5 34 9
52 9 17 1 35 6 38 11 4 6 16 8 28 5 17 -5 19 -4 7 4 -13 9 -13 10 0 15 37 11
80 15 80 6 0 -6 -9 -10 -19 -10 -11 0 -22 -3 -24 -7 -3 -5 36 -9 87 -9 88 -1
199 -25 211 -45 8 -12 -8 -12 -21 1 -11 11 -130 17 -140 7 -4 -4 1 -14 12 -22
15 -11 75 -14 327 -15 l307 0 0 280 0 280 -71 0 c-85 0 -147 -14 -218 -52 -30
-15 -57 -25 -60 -23 -11 11 48 60 103 85 l59 27 -49 13 c-27 8 -59 15 -72 16
-31 2 -40 14 -19 25 25 15 21 37 -12 53 -29 16 -49 46 -30 46 6 0 32 -15 58
-33 72 -52 154 -95 197 -103 21 -4 56 -13 76 -20 l38 -13 0 2269 0 2270 -766
0 -766 0 5 -21 c16 -60 -49 -109 -120 -90 -47 13 -63 29 -72 74 l-7 32 -73 3
c-51 2 -77 -1 -82 -9 -6 -10 -13 -10 -34 -1 -20 9 -406 12 -1615 12 l-1590 0
0 -1870z m2697 1678 c-3 -8 -6 -5 -6 6 -1 11 2 17 5 13 3 -3 4 -12 1 -19z
m-77 -4 c-23 -14 -24 -14 -2 -9 34 10 87 -4 73 -18 -9 -9 -14 -8 -20 2 -7 11
-17 12 -53 3 -23 -6 -61 -14 -83 -17 l-40 -6 42 25 c42 24 65 33 93 34 8 1 4
-5 -10 -14z m30 -44 c-8 -5 -17 -7 -19 -4 -3 3 1 9 9 14 8 5 17 7 19 4 3 -3
-1 -9 -9 -14z m100 -9 c0 -5 -33 -19 -72 -30 -82 -24 -245 -85 -299 -112 -20
-10 -62 -42 -94 -71 l-59 -53 38 54 c23 33 32 52 22 48 -9 -4 -16 -2 -16 3 0
6 6 10 14 10 8 0 40 14 71 30 31 17 64 30 74 30 19 1 109 31 130 44 24 15 145
55 169 55 12 1 22 -3 22 -8z m80 -38 c0 -11 -63 -73 -74 -73 -6 0 -5 5 2 12
15 15 16 32 2 23 -5 -3 -10 -1 -10 4 0 6 7 11 16 11 8 0 22 7 30 15 16 16 34
20 34 8z m166 -41 c12 -9 29 -30 39 -47 16 -28 15 -27 -16 7 -19 20 -43 41
-54 47 -14 7 -15 10 -5 10 8 1 25 -7 36 -17z m-947 -9 c48 -28 37 -32 -26 -12
-82 27 -82 27 -41 28 20 1 50 -7 67 -16z m1192 -18 c19 -8 43 -22 54 -32 26
-23 64 -71 45 -56 -61 45 -157 72 -145 41 4 -9 -7 -14 -31 -16 -20 -1 -33 2
-29 8 3 5 12 7 20 3 8 -3 15 -2 15 1 0 4 -10 10 -22 15 -22 8 -21 9 10 16 31
6 32 8 15 21 -17 12 -16 13 8 14 15 0 42 -7 60 -15z m-506 -4 c3 -5 0 -13 -6
-17 -7 -4 -9 -3 -5 4 4 7 -7 12 -31 15 l-38 4 37 1 c20 1 39 -2 43 -7z m-480
-21 c-41 -21 -65 -25 -65 -12 0 9 54 28 85 31 11 0 3 -7 -20 -19z m-5 -34 c0
-3 -4 -8 -10 -11 -5 -3 -10 -1 -10 4 0 6 5 11 10 11 6 0 10 -2 10 -4z m-480
-33 c0 -1 -8 -16 -18 -33 -19 -30 -36 -32 -25 -3 5 11 1 14 -13 10 -10 -3 -48
-8 -84 -12 -36 -3 -78 -10 -95 -15 -16 -5 -47 -11 -67 -15 -21 -3 -43 -11 -50
-18 -7 -7 -26 -21 -42 -31 l-29 -18 29 36 c16 20 33 36 37 36 5 0 5 5 1 12 -4
6 -3 8 3 5 10 -6 168 18 185 29 19 12 168 27 168 17z m-193 -10 c-4 -3 -28 -7
-55 -8 -26 -1 -58 -5 -72 -9 l-25 -7 25 15 c24 15 140 23 127 9z m88 -55 c6
-4 2 -8 -7 -8 -10 0 -18 7 -18 17 0 9 3 12 8 7 4 -5 12 -12 17 -16z m1883
-104 c-3 -14 -5 -12 -10 9 -3 19 -2 25 4 19 6 -6 8 -18 6 -28z m-2011 -30 c-3
-3 -12 -4 -19 -1 -8 3 -5 6 6 6 11 1 17 -2 13 -5z m63 -24 c0 -6 -12 -16 -27
-22 -16 -7 -35 -18 -44 -25 -9 -7 -48 -21 -88 -32 -45 -11 -67 -20 -57 -24 23
-9 20 -37 -3 -37 -11 0 -22 4 -25 8 -5 9 -60 7 -106 -3 -14 -2 29 23 95 56
142 72 255 107 255 79z m-240 -44 c0 -3 -4 -8 -10 -11 -5 -3 -10 -1 -10 4 0 6
5 11 10 11 6 0 10 -2 10 -4z m-40 -21 c-7 -9 -15 -13 -19 -10 -3 3 1 10 9 15
21 14 24 12 10 -5z m2245 -35 c-3 -5 -11 -10 -16 -10 -6 0 -7 5 -4 10 3 6 11
10 16 10 6 0 7 -4 4 -10z m-2187 -72 c-10 -6 -10 -8 0 -8 6 0 12 -5 12 -11 0
-8 -6 -7 -16 2 -10 8 -41 14 -75 14 -32 0 -52 3 -46 7 7 4 40 7 75 6 36 -1 57
-5 50 -10z m2407 2 c-3 -5 -26 -10 -51 -10 -24 0 -44 -4 -44 -10 0 -5 3 -10 8
-10 4 0 13 -9 20 -20 12 -20 12 -21 -17 -5 -17 8 -37 15 -46 15 -21 0 -19 17
3 23 12 3 10 5 -8 8 -14 1 11 6 55 9 44 3 81 7 83 8 2 1 0 -2 -3 -8z m-193
-164 c14 -22 -34 -34 -62 -16 -13 9 -13 11 0 20 13 9 13 10 0 10 -13 0 -13 2
-1 9 16 10 50 -3 63 -23z m-649 -356 c12 -5 44 -12 70 -15 53 -7 92 -38 158
-125 19 -25 68 -80 111 -122 48 -49 79 -89 83 -108 7 -31 20 -40 27 -18 3 7 7
5 11 -6 4 -10 3 -15 -3 -11 -11 7 -13 -9 -4 -42 4 -13 9 -21 13 -19 8 6 11
-31 4 -64 -4 -24 -4 -24 -25 8 -21 34 -43 43 -34 14 8 -24 -18 -38 -78 -41
-26 -1 -69 -12 -95 -23 -25 -10 -57 -17 -70 -15 -31 6 -51 -1 -51 -19 0 -8 -8
-15 -17 -15 -10 -1 -24 -2 -32 -3 -12 -1 -41 -46 -57 -88 -8 -24 -61 -24 -95
0 -30 20 -59 48 -59 57 0 10 -53 78 -75 97 -19 16 -80 34 -99 29 -4 -1 -14 3
-22 10 -7 6 -18 8 -24 4 -5 -3 -10 -2 -10 3 0 5 -9 12 -20 15 -11 3 -20 9 -19
14 1 4 0 10 -1 13 -7 18 -6 110 1 110 5 0 9 5 9 10 0 6 -8 10 -17 10 -12 0
-14 3 -6 8 12 7 11 56 -2 127 -11 60 -12 70 -6 80 10 17 10 35 0 35 -6 0 -5 8
1 20 6 11 17 20 25 20 7 0 15 5 17 10 2 6 12 12 23 14 11 2 40 11 65 19 25 9
59 18 75 20 42 7 201 -2 228 -13z m-1758 -472 c7 -19 17 -47 21 -62 l7 -28
-261 7 c-258 7 -260 7 -271 -14 -8 -15 -9 -27 -1 -40 15 -29 13 -37 -20 -74
-35 -40 -38 -62 -10 -77 23 -12 27 -48 6 -56 -21 -8 -27 -31 -14 -59 8 -18 8
-28 0 -38 -6 -7 -9 -22 -6 -34 7 -25 2 -29 -54 -38 l-43 -7 5 104 c2 56 5 110
5 118 1 8 0 35 -2 60 -3 25 -5 71 -6 103 l-1 57 -43 0 c-48 0 -67 13 -67 46 0
54 42 60 418 63 l322 2 15 -33z m2964 7 c11 -11 23 -37 26 -57 6 -33 5 -38
-16 -42 -13 -3 -171 -7 -351 -9 l-326 -3 20 50 c25 64 33 74 66 79 15 3 147 4
294 3 253 -1 269 -2 287 -21z m796 -80 c34 -34 32 -70 -7 -106 -30 -29 -33
-30 -112 -25 -45 3 -117 13 -161 22 -75 15 -134 21 -298 27 -47 1 -71 7 -77
17 -14 22 -12 35 8 53 15 14 37 15 152 11 74 -3 149 -5 165 -5 17 1 47 -4 68
-10 29 -10 40 -10 49 -1 7 7 28 12 48 12 19 0 44 7 54 15 31 23 83 19 111 -10z
m-3749 -151 c-6 -19 -12 -28 -14 -20 -3 13 14 56 22 56 2 0 -2 -16 -8 -36z
m599 -19 c63 -14 87 -22 57 -19 -56 6 -208 41 -182 42 8 1 65 -10 125 -23z
m2661 -39 c3 -7 21 -22 40 -32 19 -10 34 -22 34 -27 0 -11 -42 -25 -98 -33
-43 -5 -52 -3 -78 20 l-29 26 24 20 c13 11 29 20 37 20 8 0 14 5 14 10 0 15
50 12 56 -4z m-3279 -18 c-3 -8 -6 -5 -6 6 -1 11 2 17 5 13 3 -3 4 -12 1 -19z
m1993 2 c0 -5 -5 -10 -11 -10 -5 0 -7 5 -4 10 3 6 8 10 11 10 2 0 4 -4 4 -10z
m237 -30 c-6 -22 -15 -40 -19 -40 -4 0 -8 -7 -8 -16 0 -8 -5 -12 -11 -8 -7 4
-9 21 -5 47 8 50 13 57 35 57 16 0 17 -4 8 -40z m-897 -6 c0 -14 -38 -30 -47
-20 -4 3 -1 18 6 32 9 21 14 24 26 14 8 -7 15 -18 15 -26z m746 -14 c11 0 13
-6 9 -22 -9 -31 -33 -48 -67 -48 -33 0 -35 10 -7 36 12 10 26 30 32 44 8 20
11 22 14 8 3 -10 11 -18 19 -18z m-316 -5 c7 -8 23 -60 36 -115 51 -217 123
-289 286 -290 42 0 89 5 105 11 15 5 24 7 20 2 -5 -4 -23 -14 -40 -20 l-32
-13 31 5 30 6 -8 -78 c-21 -205 -56 -362 -112 -503 -5 -13 4 -15 67 -12 65 4
90 -1 204 -37 148 -48 166 -58 193 -111 12 -24 38 -49 69 -68 78 -49 216 -177
278 -259 31 -42 100 -119 153 -172 52 -53 119 -126 149 -164 30 -37 60 -67 66
-67 35 0 120 -35 151 -62 31 -27 93 -128 79 -128 -8 0 -86 50 -125 81 -19 15
-54 33 -78 39 -24 6 -57 20 -74 30 -17 10 -36 16 -43 14 -7 -3 -16 -1 -20 5
-3 6 1 11 9 11 9 0 16 5 16 10 0 22 -51 90 -87 117 -21 15 -40 31 -43 34 -3 3
-18 13 -35 23 -21 13 -42 42 -67 97 -31 64 -45 82 -73 96 -34 16 -35 16 -60
-7 -22 -21 -28 -22 -35 -10 -5 8 -10 29 -10 46 0 32 -15 54 -37 54 -8 0 -25 7
-39 17 -19 12 -22 18 -12 25 10 7 9 11 -5 19 -21 12 -38 30 -97 103 -41 51
-48 55 -75 48 -16 -3 -44 -6 -61 -5 -27 1 -34 -4 -53 -43 -22 -43 -41 -50 -41
-17 0 21 -18 76 -43 130 l-19 43 -34 -32 c-19 -18 -34 -36 -34 -41 0 -5 -11
-23 -25 -41 -14 -18 -25 -40 -25 -48 0 -8 -3 -18 -7 -22 -4 -3 -8 -16 -10 -29
-4 -27 -23 -47 -24 -27 -1 8 -1 22 0 30 2 30 -16 42 -67 43 -50 1 -51 1 -66
42 -9 22 -16 46 -16 53 0 29 -20 5 -85 -105 -69 -116 -71 -118 -105 -116 -19
0 -60 2 -90 3 -30 1 -73 7 -95 13 -22 6 -43 11 -46 11 -12 2 -59 51 -59 63 0
6 -5 13 -11 15 -20 7 9 74 39 94 15 10 72 28 126 39 75 15 102 25 110 40 6 11
14 22 18 25 4 3 11 25 16 48 9 36 8 42 -7 43 -9 0 -23 2 -31 3 -8 2 -41 6 -72
10 -32 4 -58 12 -58 18 0 5 -7 8 -15 5 -13 -6 -75 45 -75 61 0 4 72 8 159 9
117 2 169 6 197 18 20 8 56 15 79 15 46 0 69 17 59 44 -8 22 -52 20 -89 -3
-29 -18 -31 -18 -80 1 -39 16 -64 19 -114 14 -56 -6 -68 -4 -107 19 -24 14
-44 28 -44 32 0 13 41 71 54 76 7 3 19 1 27 -4 24 -15 36 -10 81 35 24 24 57
47 74 50 41 9 82 52 66 68 -8 8 -18 7 -37 -6 -28 -18 -75 -15 -75 5 0 5 -18
33 -39 62 -43 58 -54 95 -43 147 5 19 4 55 0 80 -23 124 -41 207 -49 222 -13
25 16 48 60 48 22 0 44 -6 51 -15z m94 2 c-7 -19 63 -77 95 -79 14 -1 37 -3
51 -4 14 -1 45 -3 70 -3 33 -1 41 -4 30 -11 -8 -5 -25 -10 -37 -10 -13 0 -23
-6 -23 -13 0 -9 17 -12 58 -11 31 0 62 -3 69 -8 7 -6 17 -7 23 -3 6 4 10 -6
10 -24 0 -17 5 -31 11 -31 7 0 10 -29 7 -87 l-3 -88 -40 -13 c-53 -18 -150 -9
-210 19 -81 38 -122 115 -131 249 -5 66 5 130 20 130 3 0 3 -6 0 -13z m1711
-21 c0 -17 -6 -31 -17 -37 -17 -9 -16 -13 14 -43 18 -19 42 -46 54 -62 16 -21
30 -28 65 -31 49 -4 76 -27 58 -50 -7 -8 -9 -32 -6 -59 4 -43 3 -46 -27 -60
-28 -14 -56 -52 -56 -78 0 -5 -9 -20 -21 -32 -11 -12 -21 -28 -22 -36 -5 -28
-72 -78 -106 -78 -26 0 -71 21 -71 32 0 5 -6 8 -12 6 -7 -1 -23 3 -34 10 -18
9 -24 8 -39 -8 -14 -15 -21 -17 -41 -8 -13 6 -24 18 -24 25 0 8 -5 11 -11 8
-5 -4 -22 -8 -37 -10 l-26 -3 23 19 c13 11 33 19 46 19 12 0 28 7 35 15 7 8
19 15 27 15 9 0 13 6 9 15 -3 8 0 26 6 40 9 19 8 29 -6 49 -22 34 -20 98 4
146 11 22 20 47 20 57 0 30 45 69 97 83 28 8 41 15 30 17 -13 4 -16 11 -10 31
8 33 19 41 51 38 20 -2 26 -9 27 -30z m-1592 -43 c-7 -2 -19 -2 -25 0 -7 3 -2
5 12 5 14 0 19 -2 13 -5z m408 -84 l-11 -34 5 34 c3 18 6 45 6 60 l2 26 4 -26
c2 -15 -1 -42 -6 -60z m-1087 2 c3 -5 -3 -11 -13 -14 -14 -3 -18 -1 -14 9 6
16 19 18 27 5z m1029 -16 c-6 -17 -25 -15 -31 3 -2 7 5 12 17 12 14 0 19 -5
14 -15z m-1073 -15 c10 -6 11 -10 3 -10 -7 0 -13 -5 -13 -11 0 -6 12 -10 28
-9 66 5 72 -3 76 -96 l3 -52 -41 -12 c-118 -35 -238 -17 -301 46 -19 19 -35
40 -35 46 0 6 10 -2 22 -18 47 -61 78 -70 78 -25 0 17 4 32 9 35 5 4 7 20 5
36 -3 17 -1 30 5 30 6 0 11 -5 11 -12 0 -6 8 -1 19 10 10 12 20 20 22 18 2 -2
20 4 39 14 42 21 50 23 70 10z m-1821 -57 c2 -1 -8 -12 -22 -24 -33 -25 -34
-35 -6 -42 36 -10 11 -76 -28 -77 -9 0 -13 22 -13 78 0 43 3 81 6 85 5 5 47
-8 63 -20z m3820 -2 c8 -5 9 -11 3 -15 -14 -8 -43 4 -36 15 7 11 15 11 33 0z
m-919 -44 c0 -2 -10 -12 -22 -23 l-23 -19 19 23 c18 21 26 27 26 19z m-55 -47
c-3 -5 -16 -15 -28 -21 -19 -9 -19 -8 3 10 28 23 34 26 25 11z m-964 -69 c-7
-5 -9 -10 -3 -12 24 -9 6 -129 -19 -129 -5 0 -9 -6 -9 -13 0 -7 -14 -24 -32
-37 -28 -20 -31 -21 -24 -4 6 15 5 17 -5 7 -20 -20 -25 -16 -48 27 -11 22 -16
40 -11 40 5 0 7 6 4 13 -5 15 52 61 66 52 6 -3 10 1 10 9 0 10 6 13 17 9 13
-5 15 -2 11 15 -6 21 5 28 42 31 12 1 12 -1 1 -8z m-1871 -36 c5 -14 7 -38 4
-54 -4 -16 0 -40 9 -57 9 -17 11 -37 7 -49 -4 -11 -5 -24 -3 -28 3 -4 -1 -14
-7 -22 -7 -8 -9 -22 -6 -31 11 -28 -21 -66 -52 -62 -25 3 -27 7 -30 58 -1 30
-3 69 -4 85 -1 17 -1 60 0 96 2 57 5 67 25 77 35 17 47 14 57 -13z m3741 -12
c14 -14 -74 -85 -95 -77 -9 3 -16 15 -16 25 0 10 -5 19 -10 19 -6 0 -3 12 6
26 15 23 23 25 61 21 24 -2 49 -9 54 -14z m-2775 -65 c1 -10 -2 -20 -7 -24
-10 -6 -1 -52 13 -71 6 -7 8 -19 5 -27 -3 -8 -3 -17 1 -21 7 -7 8 -13 12 -120
2 -59 -5 -161 -16 -220 -10 -61 -36 -171 -44 -190 -4 -11 -11 -28 -14 -37 -3
-10 -10 -18 -16 -18 -14 0 -12 83 4 162 29 135 40 300 27 415 -6 60 -14 123
-18 141 -5 32 -4 33 22 30 18 -2 29 -10 31 -20z m120 -35 c-3 -4 0 -13 8 -22
14 -16 30 -103 41 -211 3 -30 7 -66 10 -80 16 -86 16 -85 5 -70 -50 68 -82
180 -96 334 l-7 78 22 -12 c13 -6 20 -14 17 -17z m2960 -192 c5 -6 25 -13 44
-16 73 -12 88 -25 51 -44 -51 -28 -173 -17 -185 15 -3 8 -2 13 3 10 5 -3 21 6
35 19 30 27 37 30 52 16z m-328 -31 c-2 -19 -10 -26 -31 -28 -18 -2 -29 2 -33
12 -9 23 14 46 43 44 19 -2 23 -7 21 -28z m-3765 5 c8 -18 -11 -31 -25 -17
-11 11 -3 32 12 32 4 0 10 -7 13 -15z m4175 -87 c23 -6 42 -13 42 -17 -1 -12
-27 -41 -38 -41 -26 0 -18 -41 19 -100 5 -8 21 -39 36 -68 19 -37 32 -51 42
-47 9 3 12 3 8 -1 -3 -4 5 -17 18 -29 23 -19 25 -27 22 -81 -3 -56 -5 -59 -33
-64 -31 -6 -33 -12 -50 -157 -8 -68 -34 -92 -107 -100 -86 -9 -161 4 -190 33
-21 20 -27 41 -37 125 -11 92 -11 109 9 207 12 59 22 138 23 175 2 65 3 69 31
83 19 10 26 19 20 27 -19 25 -7 42 40 58 49 16 70 16 145 -3z m-391 -30 c-17
-11 -29 -9 -52 8 -31 23 1 38 37 16 19 -11 24 -18 15 -24z m33 -61 c25 -20 17
-40 -19 -50 -58 -15 -102 18 -69 51 15 15 69 15 88 -1z m-3082 -36 c23 -5 66
-24 96 -44 29 -19 63 -37 75 -39 32 -5 30 -22 -3 -26 -20 -3 -32 3 -43 17 -8
12 -24 21 -35 21 -12 0 -29 7 -39 16 -9 8 -27 17 -40 18 -13 2 -31 6 -39 9
-61 22 -127 2 -173 -52 l-26 -31 42 -43 c23 -24 51 -58 62 -77 l19 -35 -43 37
c-54 46 -99 68 -147 71 -36 2 -46 -5 -58 -46 -5 -16 -7 -16 -27 4 -20 20 -21
20 -41 3 -20 -18 -20 -19 1 -28 12 -5 21 -13 21 -18 0 -4 8 -8 18 -8 9 0 23
-9 30 -21 8 -12 19 -18 28 -15 9 3 14 -1 14 -14 0 -18 -3 -18 -57 6 -81 35
-125 55 -144 65 -34 16 -186 -16 -200 -43 -8 -16 -5 -19 21 -24 16 -4 30 -11
30 -16 0 -6 -11 -7 -27 -3 -49 12 -82 14 -125 7 -43 -8 -66 -32 -29 -32 11 0
23 -5 26 -11 4 -6 17 -15 29 -20 16 -7 14 -8 -9 -2 -16 4 -46 7 -65 7 -19 1
-38 6 -42 11 -10 14 -129 13 -159 -1 -13 -7 -40 -18 -59 -25 -19 -7 -48 -24
-64 -38 l-30 -26 16 25 c19 31 70 59 174 95 43 16 97 38 120 50 22 12 83 39
135 60 52 21 134 60 182 87 49 27 113 54 143 60 47 9 61 8 115 -11 l60 -22 45
41 c73 67 121 80 222 61z m-326 -233 c-7 -7 -12 -8 -12 -2 0 14 12 26 19 19 2
-3 -1 -11 -7 -17z m-385 -174 c-6 -6 -47 9 -47 17 0 5 11 3 25 -3 14 -6 24
-13 22 -14z m43 -14 c8 -5 11 -10 5 -10 -5 0 -17 5 -25 10 -8 5 -10 10 -5 10
6 0 17 -5 25 -10z m2239 -145 c-12 -19 -25 -38 -30 -41 -5 -3 -9 -11 -9 -19 0
-19 -78 -95 -97 -95 -13 0 -14 8 -9 43 4 23 7 58 8 79 l0 36 77 15 c42 8 77
15 78 16 1 0 -7 -15 -18 -34z m-2749 -35 c-8 -5 -22 -9 -30 -9 -10 0 -8 3 5 9
27 12 43 12 25 0z m110 -49 c14 -4 20 -10 15 -13 -6 -3 -23 0 -40 7 -32 14
-17 18 25 6z m79 -27 c2 -2 2 -6 0 -9 -8 -7 -49 7 -49 17 0 8 38 2 49 -8z
m4731 -1014 c-8 -5 -24 -9 -35 -9 l-20 0 20 9 c11 5 27 9 35 9 13 1 13 0 0 -9z
m-193 -15 c70 0 118 -4 113 -9 -5 -5 -27 -10 -51 -12 -23 -2 -48 -9 -55 -15
-7 -6 -18 -8 -24 -4 -5 3 -10 0 -11 -7 0 -10 -2 -10 -6 0 -2 6 -17 12 -31 12
-15 1 -47 12 -72 26 -35 20 -39 23 -15 17 17 -4 85 -8 152 -8z m160 -21 c-3
-3 -12 -4 -19 -1 -8 3 -5 6 6 6 11 1 17 -2 13 -5z m-212 -34 c-3 -5 7 -16 22
-24 19 -10 22 -15 11 -16 -18 0 -48 25 -48 41 0 5 5 9 11 9 5 0 8 -4 4 -10z
m-665 -160 c0 -5 -11 -10 -25 -10 -14 0 -25 5 -25 10 0 6 11 10 25 10 14 0 25
-4 25 -10z m-64 -9 c-3 -5 -15 -7 -26 -4 -12 3 -20 0 -20 -6 0 -7 -5 -9 -11
-5 -8 4 -7 9 2 15 19 12 62 11 55 0z"/>
<path d="M3040 2849 c0 -15 41 -30 73 -27 29 3 28 4 -21 19 -29 8 -52 12 -52
8z"/>
<path d="M3160 2820 c8 -5 24 -10 34 -10 26 0 18 6 -19 14 -22 5 -26 4 -15 -4z"/>
<path d="M2396 2747 c3 -10 9 -15 12 -12 3 3 0 11 -7 18 -10 9 -11 8 -5 -6z"/>
<path d="M835 1780 c-11 -18 26 -23 43 -6 15 15 14 16 -10 16 -15 0 -30 -5
-33 -10z"/>
<path d="M415 1640 c-3 -5 -2 -10 4 -10 5 0 13 5 16 10 3 6 2 10 -4 10 -5 0
-13 -4 -16 -10z"/>
<path d="M4400 49 c0 -5 5 -7 10 -4 6 3 10 8 10 11 0 2 -4 4 -10 4 -5 0 -10
-5 -10 -11z"/>
</g>
</svg>
